<?xml version="1.0" encoding="UTF-8"?>
<svg xmlns="http://www.w3.org/2000/svg" xmlns:xlink="http://www.w3.org/1999/xlink" viewBox="0 0 150 150" width="150px" height="150px">
<g id="surface46115001">
<path style=" stroke:none;fill-rule:nonzero;fill:rgb(2.745098%,66.666669%,1.568628%);fill-opacity:1;" d="M 99.847656 28.125 C 99.113281 28.125 98.4375 28.714844 98.4375 29.535156 L 98.4375 55.296875 L 92.597656 51.890625 C 92.230469 51.675781 91.820312 51.570312 91.40625 51.570312 C 90.992188 51.570312 90.582031 51.675781 90.214844 51.890625 L 76.179688 60.078125 C 75.449219 60.5 75 61.28125 75 62.117188 L 75 78.507812 C 75 79.351562 75.449219 80.125 76.179688 80.546875 L 90.214844 88.734375 C 90.582031 88.949219 90.992188 89.054688 91.40625 89.054688 C 91.820312 89.054688 92.230469 88.949219 92.597656 88.734375 L 106.632812 80.546875 C 107.363281 80.125 107.8125 79.34375 107.8125 78.507812 L 107.8125 33.894531 C 107.8125 33.058594 107.367188 32.292969 106.648438 31.871094 L 100.542969 28.316406 C 100.3125 28.1875 100.082031 28.125 99.847656 28.125 Z M 53.90625 51.570312 C 53.496094 51.570312 53.085938 51.679688 52.714844 51.890625 L 38.679688 60.078125 C 37.949219 60.5 37.5 61.28125 37.5 62.117188 L 37.5 78.507812 C 37.5 79.351562 37.949219 80.125 38.679688 80.546875 L 52.714844 88.734375 C 53.453125 89.160156 54.359375 89.160156 55.097656 88.734375 L 69.132812 80.546875 C 69.863281 80.125 70.3125 79.34375 70.3125 78.507812 L 70.3125 62.117188 C 70.3125 61.273438 69.863281 60.5 69.132812 60.078125 L 55.097656 51.890625 C 54.726562 51.679688 54.316406 51.570312 53.90625 51.570312 Z M 128.90625 51.570312 C 128.492188 51.570312 128.082031 51.675781 127.714844 51.890625 L 113.679688 60.078125 C 112.949219 60.5 112.5 61.28125 112.5 62.117188 L 112.5 78.507812 C 112.5 79.351562 112.949219 80.125 113.679688 80.546875 L 127.296875 88.777344 C 128.027344 89.222656 128.945312 89.226562 129.683594 88.796875 L 136.378906 84.90625 C 137.070312 84.507812 137.074219 83.5 136.378906 83.09375 L 121.875 74.550781 L 121.875 66.136719 L 128.90625 62.046875 L 135.9375 66.136719 L 135.9375 71.996094 C 135.9375 72.78125 136.59375 72.902344 137.035156 72.636719 C 138.808594 71.597656 144.148438 68.5 144.148438 68.5 C 144.867188 68.082031 145.3125 67.3125 145.3125 66.476562 L 145.3125 62.117188 C 145.3125 61.273438 144.863281 60.5 144.132812 60.078125 L 130.097656 51.890625 C 129.726562 51.675781 129.320312 51.570312 128.90625 51.570312 Z M 16.40625 51.582031 C 15.992188 51.582031 15.582031 51.6875 15.214844 51.902344 L 1.179688 60.078125 C 0.449219 60.503906 0 61.285156 0 62.128906 L 0 83.046875 C 0 84.070312 1.105469 84.703125 1.988281 84.191406 L 8.210938 80.566406 C 8.929688 80.144531 9.375 79.378906 9.375 78.542969 L 9.375 66.15625 L 16.40625 62.054688 L 23.4375 66.15625 L 23.4375 78.542969 C 23.4375 79.378906 23.882812 80.144531 24.601562 80.566406 L 30.824219 84.191406 C 31.707031 84.707031 32.8125 84.070312 32.8125 83.046875 L 32.8125 62.128906 C 32.8125 61.285156 32.363281 60.503906 31.632812 60.078125 L 17.597656 51.902344 C 17.230469 51.6875 16.820312 51.582031 16.40625 51.582031 Z M 91.40625 62.046875 L 98.4375 66.148438 L 98.4375 74.476562 L 91.40625 78.578125 L 84.375 74.476562 L 84.375 66.148438 Z M 128.90625 65.644531 L 124.886719 67.988281 L 124.886719 72.664062 L 128.90625 75 L 132.925781 72.664062 L 132.925781 67.988281 Z M 72.21875 84.367188 C 71.734375 84.367188 71.246094 84.484375 70.824219 84.722656 L 57.640625 92.339844 C 56.773438 92.816406 56.25 93.757812 56.25 94.738281 L 56.25 109.953125 C 56.25 110.933594 56.796875 111.855469 57.640625 112.351562 L 61.113281 114.332031 C 62.777344 115.152344 63.386719 115.15625 64.140625 115.15625 C 66.625 115.15625 68.042969 113.667969 68.042969 111.042969 L 68.042969 96.011719 C 68.042969 95.78125 67.863281 95.617188 67.65625 95.617188 L 65.992188 95.617188 C 65.761719 95.617188 65.597656 95.804688 65.597656 96.011719 L 65.597656 111.042969 C 65.597656 112.183594 64.394531 113.351562 62.429688 112.371094 L 58.824219 110.292969 C 58.707031 110.222656 58.621094 110.082031 58.621094 109.945312 L 58.621094 94.730469 C 58.621094 94.59375 58.6875 94.433594 58.824219 94.363281 L 72.007812 86.765625 C 72.148438 86.695312 72.304688 86.695312 72.417969 86.765625 L 85.609375 94.363281 C 85.746094 94.433594 85.8125 94.570312 85.8125 94.730469 L 85.8125 109.945312 C 85.8125 110.105469 85.722656 110.242188 85.609375 110.3125 L 72.417969 117.9375 C 72.300781 118.007812 72.117188 118.007812 72.007812 117.9375 L 68.636719 115.933594 C 68.546875 115.886719 68.40625 115.859375 68.316406 115.90625 C 67.382812 116.453125 67.195312 116.527344 66.328125 116.820312 C 66.101562 116.890625 65.789062 117.03125 66.449219 117.398438 L 70.824219 120 C 71.261719 120.226562 71.738281 120.363281 72.21875 120.363281 C 72.71875 120.363281 73.207031 120.226562 73.589844 119.980469 L 86.773438 112.351562 C 87.640625 111.875 88.164062 110.933594 88.164062 109.953125 L 88.164062 94.738281 C 88.164062 93.757812 87.617188 92.839844 86.773438 92.339844 L 73.589844 84.722656 C 73.179688 84.484375 72.699219 84.367188 72.21875 84.367188 Z M 92.78125 91.386719 C 91.433594 91.386719 90.253906 92.476562 90.253906 93.914062 C 90.253906 95.308594 91.386719 96.449219 92.78125 96.449219 C 94.171875 96.449219 95.304688 95.308594 95.304688 93.914062 C 95.304688 92.476562 94.148438 91.363281 92.78125 91.386719 Z M 92.753906 91.789062 C 93.941406 91.789062 94.902344 92.730469 94.902344 93.914062 C 94.902344 95.078125 93.9375 96.039062 92.753906 96.066406 C 91.585938 96.066406 90.636719 95.101562 90.636719 93.914062 C 90.636719 92.730469 91.589844 91.789062 92.753906 91.789062 Z M 91.828125 92.476562 L 91.828125 95.324219 L 92.367188 95.324219 L 92.367188 94.191406 L 92.871094 94.191406 C 93.078125 94.191406 93.125 94.277344 93.171875 94.4375 C 93.171875 94.460938 93.257812 95.199219 93.28125 95.332031 L 93.867188 95.332031 C 93.804688 95.199219 93.753906 94.808594 93.730469 94.574219 C 93.667969 94.207031 93.644531 93.957031 93.253906 93.933594 C 93.460938 93.863281 93.804688 93.753906 93.804688 93.226562 C 93.804688 92.472656 93.148438 92.476562 92.808594 92.476562 Z M 92.367188 92.933594 L 92.824219 92.933594 C 92.964844 92.933594 93.238281 92.929688 93.238281 93.320312 C 93.238281 93.480469 93.167969 93.738281 92.796875 93.730469 L 92.367188 93.730469 Z M 75.75 95.261719 C 71.988281 95.261719 69.753906 96.863281 69.753906 99.507812 C 69.753906 102.40625 71.992188 103.179688 75.59375 103.546875 C 79.90625 103.976562 80.246094 104.597656 80.246094 105.441406 C 80.246094 106.921875 79.058594 107.539062 76.273438 107.539062 C 72.78125 107.539062 72.011719 106.671875 71.757812 104.9375 C 71.734375 104.753906 71.570312 104.617188 71.367188 104.617188 L 69.652344 104.617188 C 69.445312 104.617188 69.269531 104.78125 69.269531 105.011719 C 69.269531 107.222656 70.476562 109.871094 76.246094 109.871094 C 80.476562 109.867188 82.875 108.226562 82.875 105.351562 C 82.875 102.5 80.953125 101.742188 76.894531 101.191406 C 72.789062 100.644531 72.382812 100.367188 72.382812 99.40625 C 72.382812 98.609375 72.71875 97.566406 75.75 97.566406 C 78.464844 97.566406 79.476562 98.160156 79.890625 99.984375 C 79.9375 100.167969 80.0625 100.277344 80.246094 100.277344 L 81.957031 100.277344 C 82.070312 100.277344 82.167969 100.234375 82.234375 100.167969 C 82.304688 100.078125 82.347656 99.988281 82.324219 99.875 C 82.050781 96.726562 79.972656 95.261719 75.75 95.261719 Z M 75.75 95.261719 "/>
</g>
</svg>
